# xmcd
#
# Track frame offsets:
#	150
#	13690
#	46585
#	75242
#	89062
#	110694
#	130774
#	159094
#	178314
#	202606
#	218911
#	237113
#	279883
#
# Disc length: 3955 seconds
#
# Revision: 1
# Processed by: cddbd v1.5.2PL0 Copyright (c) Steve Scherf et al.
# Submitted via: audiograbber 1.83.01
#
DISCID=9b0f710d
DTITLE=—борник - Depression Blues. CD 1
DYEAR=1900
DGENRE=Blues
TTITLE0=Junior Parker - Five Long Years
TTITLE1=J. Allen Blues Reviev - Ol'Dog
TTITLE2=Buddy Guy - Have You Ever Been Lone...
TTITLE3=E.Clapton - Draggin'My Tail
TTITLE4=J.L. Hooker - It Serves Me Right To Surfer
TTITLE5=Muddy Waters - Honey Bu
TTITLE6=Harvey Mondell - Long Hard Journey
TTITLE7=G. Freeman - Confirmed Trunh
TTITLE8=Buddy Guy - D.J. Play My Blues
TTITLE9=Charles Brown - Driftin Blues
TTITLE10=Lightnin Hopkins - Bring Me My Shotgun
TTITLE11=Ilunois Jacquet - Blues For New Orleans
TTITLE12=J. Parker - Darlin Depeno On Me
EXTD=
EXTT0=
EXTT1=
EXTT2=
EXTT3=
EXTT4=
EXTT5=
EXTT6=
EXTT7=
EXTT8=
EXTT9=
EXTT10=
EXTT11=
EXTT12=
PLAYORDER=
